<svg width="24" height="24" viewBox="0 0 24 24" fill="none" xmlns="http://www.w3.org/2000/svg">
<mask id="mask0_232_2061" style="mask-type:alpha" maskUnits="userSpaceOnUse" x="-1" y="0" width="25" height="24">
<circle cx="11.998" cy="12" r="12" fill="#C4C4C4"/>
</mask>
<g mask="url(#mask0_232_2061)">
<g clip-path="url(#clip0_232_2061)">
<path d="M-5.37012 15.9932V20.6709C-5.37012 22.6105 -3.82988 23.9796 -1.94737 23.9796H26.5756C28.4581 23.9796 29.9983 22.6105 29.9983 20.6709V15.9932H-5.37012Z" fill="#1EB53A"/>
<path d="M26.5756 0.0202637H-1.94737C-3.82988 0.0202637 -5.37012 1.38936 -5.37012 3.32892V8.00668H29.9983V3.32892C29.9983 1.38936 28.4581 0.0202637 26.5756 0.0202637Z" fill="#0099B5"/>
<path d="M29.9983 8.00659H-5.37012V15.993H29.9983V8.00659Z" fill="white"/>
<path d="M26.5761 23.9796C28.4586 23.9796 29.9988 22.6105 29.9988 20.6709V15.9932H17.1064L26.5761 23.9796Z" fill="#11A325"/>
<path d="M26.5757 0.0202637H-1.94727L7.4653 8.00668H29.9984V3.32892C29.9984 1.38936 28.4582 0.0202637 26.5757 0.0202637Z" fill="#078C9E"/>
<path d="M17.1056 15.993H29.9979V8.00659H7.46484L17.1056 15.993Z" fill="#E1EAE2"/>
<path d="M26.5757 0.0202637H-1.94727L24.465 8.00668H29.9984V3.32892C29.9984 1.38936 28.4582 0.0202637 26.5757 0.0202637Z" fill="#048089"/>
<path d="M29.9983 20.6137C29.9983 22.7814 28.4581 23.9794 26.5756 23.9794H-1.94737C-3.82988 23.9794 -5.37012 22.4962 -5.37012 20.5566" fill="#098914"/>
<path d="M29.9983 7.43628H-5.37012V8.00674H29.9983V7.43628Z" fill="#CE1126"/>
<path d="M7.46523 8.00674H29.9983V7.43628H6.72363L7.46523 8.00674Z" fill="#A8071E"/>
<path d="M29.9983 15.9932H-5.37012V16.5636H29.9983V15.9932Z" fill="#CE1126"/>
<path d="M17.1064 15.9932L17.791 16.5636H29.9988V15.9932H17.1064Z" fill="#A8071E"/>
<path d="M1.07591 5.38264L0.961821 5.09741L0.847729 5.38264H0.5625L0.790684 5.61082L0.733638 5.89605L0.961821 5.72492L1.24705 5.89605L1.13296 5.61082L1.41819 5.38264H1.07591Z" fill="white"/>
<path d="M2.84349 5.38264L2.7294 5.09741L2.61531 5.38264H2.33008L2.55826 5.61082L2.50122 5.89605L2.7294 5.72492L3.01463 5.89605L2.90054 5.61082L3.12872 5.38264H2.84349Z" fill="white"/>
<path d="M4.61204 5.38264L4.49795 5.09741L4.38386 5.38264H4.09863L4.32682 5.61082L4.21272 5.89605L4.49795 5.72492L4.78318 5.89605L4.66909 5.61082L4.89727 5.38264H4.61204Z" fill="white"/>
<path d="M6.3806 5.38264L6.26651 5.09741L6.15242 5.38264H5.86719L6.09537 5.61082L5.98128 5.89605L6.26651 5.72492L6.55174 5.89605L6.43765 5.61082L6.66583 5.38264H6.3806Z" fill="white"/>
<path d="M8.14916 5.38264L8.03506 5.09741L7.92097 5.38264H7.63574L7.86393 5.61082L7.74983 5.89605L8.03506 5.72492L8.26325 5.89605L8.2062 5.61082L8.43438 5.38264H8.14916Z" fill="white"/>
<path d="M2.7294 3.3291L2.67235 3.61433H2.33008L2.61531 3.84251L2.50122 4.12774L2.7294 3.9566L3.01463 4.12774L2.90054 3.84251L3.18577 3.61433H2.84349L2.7294 3.3291Z" fill="white"/>
<path d="M4.49795 3.3291L4.44091 3.61433H4.09863L4.38386 3.84251L4.26977 4.12774L4.49795 3.9566L4.78318 4.12774L4.66909 3.84251L4.95432 3.61433H4.61204L4.49795 3.3291Z" fill="white"/>
<path d="M6.26651 3.3291L6.20946 3.61433H5.86719L6.15242 3.84251L6.03832 4.12774L6.26651 3.9566L6.55174 4.12774L6.43765 3.84251L6.72287 3.61433H6.3806L6.26651 3.3291Z" fill="white"/>
<path d="M8.14916 3.61433L8.03506 3.3291L7.97802 3.61433H7.63574L7.86393 3.84251L7.80688 4.12774L8.03506 3.9566L8.32029 4.12774L8.2062 3.84251L8.49143 3.61433H8.14916Z" fill="white"/>
<path d="M4.32722 2.07396L4.21313 2.35919L4.49836 2.18805L4.72654 2.35919L4.6695 2.07396L4.89768 1.84578H4.61245L4.49836 1.56055L4.38427 1.84578H4.04199L4.32722 2.07396Z" fill="white"/>
<path d="M6.09578 2.07396L5.98168 2.35919L6.26691 2.18805L6.4951 2.35919L6.43805 2.07396L6.66623 1.84578H6.381L6.26691 1.56055L6.15282 1.84578H5.81055L6.09578 2.07396Z" fill="white"/>
<path d="M7.86433 2.07396L7.75024 2.35919L8.03547 2.18805L8.26365 2.35919L8.2066 2.07396L8.43479 1.84578H8.09251L8.03547 1.56055L7.92138 1.84578H7.5791L7.86433 2.07396Z" fill="white"/>
</g>
</g>
<defs>
<clipPath id="clip0_232_2061">
<rect x="-5.37012" y="-5.68433" width="35.3684" height="35.3684" rx="16" fill="white"/>
</clipPath>
</defs>
</svg>
