<svg width="18" height="16" viewBox="0 0 18 16" fill="none" xmlns="http://www.w3.org/2000/svg">
<path d="M4.62435 0.708252C2.43822 0.708252 0.666016 2.48046 0.666016 4.66659V11.3333C0.666016 13.5194 2.43822 15.2916 4.62435 15.2916H10.666C12.8521 15.2916 14.6243 13.5194 14.6243 11.3333C14.6243 10.9881 14.3445 10.7083 13.9993 10.7083C13.6542 10.7083 13.3743 10.9881 13.3743 11.3333C13.3743 12.829 12.1618 14.0416 10.666 14.0416H6.88612C7.55066 13.3335 7.95768 12.3809 7.95768 11.3333V4.66659C7.95768 3.61891 7.55066 2.6663 6.88612 1.95825H10.666C12.1618 1.95825 13.3743 3.17081 13.3743 4.66659C13.3743 5.01176 13.6542 5.29158 13.9993 5.29158C14.3445 5.29158 14.6243 5.01176 14.6243 4.66659C14.6243 2.48046 12.8521 0.708252 10.666 0.708252H4.62435Z" fill="#EB5757"/>
<path d="M11.9412 5.89131C12.1852 6.13539 12.1852 6.53112 11.9412 6.77519L11.3414 7.37492L16.7076 7.37492C17.0528 7.37492 17.3326 7.65474 17.3326 7.99992C17.3326 8.3451 17.0528 8.62492 16.7076 8.62492L11.3414 8.62492L11.9412 9.22464C12.1852 9.46872 12.1852 9.86445 11.9412 10.1085C11.6971 10.3526 11.3014 10.3526 11.0573 10.1085L9.97987 9.03112C9.41036 8.4616 9.41036 7.53824 9.97987 6.96872L11.0573 5.89131C11.3014 5.64723 11.6971 5.64723 11.9412 5.89131Z" fill="#EB5757"/>
</svg>
